<svg xmlns="http://www.w3.org/2000/svg" width="1126" height="352" viewBox="0 0 1126 352">
  <defs>
    <linearGradient id="a" x1="100%" x2="0%" y1="100%" y2="100%">
      <stop stop-color="#00AEFF" offset="0%"/>
      <stop stop-color="#3369E6" offset="100%"/>
    </linearGradient>
    <linearGradient id="b" x1="97.751%" x2="0%" y1="100%" y2="100%">
      <stop stop-color="#00AEFF" offset="0%"/>
      <stop stop-color="#3369E6" offset="100%"/>
    </linearGradient>
    <linearGradient id="c" x1="99.081%" x2="0%" y1="100%" y2="100%">
      <stop stop-color="#8E43E6" offset="0%"/>
      <stop stop-color="#3369E6" offset="100%"/>
    </linearGradient>
    <linearGradient id="d" x1="100%" x2="1.736%" y1="92.824%" y2="96.745%">
      <stop stop-color="#00AEFF" offset="0%"/>
      <stop stop-color="#3369E6" offset="34.64%"/>
      <stop stop-color="#913FE6" offset="100%"/>
    </linearGradient>
    <linearGradient id="e" x1="0%" y1="50%" y2="50%">
      <stop stop-color="#FFFFFF" stop-opacity="0" offset="0%"/>
      <stop stop-color="#FFFFFF" offset="100%"/>
    </linearGradient>
    <linearGradient id="f" x1="100%" x2="1.736%" y1="96.739%" y2="96.745%">
      <stop stop-color="#00AEFF" offset="0%"/>
      <stop stop-color="#3369E6" offset="34.64%"/>
      <stop stop-color="#913FE6" offset="100%"/>
    </linearGradient>
    <linearGradient id="g" x1="99.285%" x2="1.736%" y1="96.141%" y2="96.745%">
      <stop stop-color="#00AEFF" offset="0%"/>
      <stop stop-color="#3369E6" offset="34.64%"/>
      <stop stop-color="#913FE6" offset="100%"/>
    </linearGradient>
    <linearGradient id="h" x1="100%" x2="1.736%" y1="2.447%" y2="96.745%">
      <stop stop-color="#00AEFF" offset="0%"/>
      <stop stop-color="#3369E6" offset="34.64%"/>
      <stop stop-color="#913FE6" offset="100%"/>
    </linearGradient>
    <linearGradient id="i" x1="100%" x2="1.736%" y1="96.745%" y2="96.745%">
      <stop stop-color="#00AEFF" offset="0%"/>
      <stop stop-color="#3369E6" offset="34.64%"/>
      <stop stop-color="#913FE6" offset="100%"/>
    </linearGradient>
  </defs>
  <g fill="none" fill-rule="evenodd">
    <path fill="url(#a)" d="M0 64L310.000275 64C318.836679 64 326 71.1615011 326 80L326 80C326 88.836556 318.830316 96 310.000275 96L0 96 0 64zM0 320L131.006138 320C139.839304 320 147 327.161501 147 336L147 336C147 344.836556 139.835309 352 131.006138 352L0 352 0 320z" opacity=".9"/>
    <path fill="url(#b)" d="M0,32 L209.99553,32 C218.834555,32 226,39.1615011 226,48 L226,48 C226,56.836556 218.831483,64 209.99553,64 L0,64 L0,32 Z" opacity=".4"/>
    <path fill="url(#a)" d="M0,-1.42108547e-14 L84.0025891,-1.42108547e-14 C92.8377152,-1.42108547e-14 100,7.16150109 100,16 L100,16 C100,24.836556 92.8283243,32 84.0025891,32 L0,32 L0,-1.42108547e-14 Z" opacity=".2"/>
    <path fill="url(#c)" d="M0,224 L1049.79777,224 C1058.63332,224 1065.79594,231.161501 1065.79594,240 L1065.79594,240 C1065.79594,248.836556 1058.6369,256 1049.79777,256 L0,256 L0,224 Z"/>
    <path fill="url(#a)" d="M0,192 L1109.79318,192 C1118.62722,192 1125.78862,199.161501 1125.78862,208 L1125.78862,208 C1125.78862,216.836556 1118.61797,224 1109.79318,224 L0,224 L0,192 Z" opacity=".9"/>
    <path fill="url(#a)" d="M0 192L918.992556 192C927.833223 192 935 199.161501 935 208L935 208C935 216.836556 927.845539 224 918.992556 224L0 224 0 192zM0 160L1076.99492 160C1085.83428 160 1093 167.161501 1093 176L1093 176C1093 184.836556 1085.84038 192 1076.99492 192L0 192 0 160z" opacity=".9"/>
    <path fill="url(#d)" d="M0,128 L1049.79777,128 C1058.63332,128 1065.79594,135.161501 1065.79594,144 L1065.79594,144 C1065.79594,152.836556 1058.6369,160 1049.79777,160 L0,160 L0,128 Z" opacity=".2"/>
    <path fill="url(#d)" d="M-1.13686838e-13,96 L933.000663,96 C941.836853,96 949,103.161501 949,112 L949,112 C949,120.836556 941.839726,128 933.000663,128 L-1.13686838e-13,128 L-1.13686838e-13,96 Z" opacity=".4"/>
    <path fill="url(#e)" d="M0,160 L703.994956,160 C712.834298,160 720,167.161501 720,176 L720,176 C720,184.836556 712.84479,192 703.994956,192 L0,192 L0,160 Z" opacity=".2" style="mix-blend-mode:overlay"/>
    <path fill="url(#f)" d="M-2.84217094e-14,160 L464.996269,160 C473.834886,160 481,167.161501 481,176 L481,176 C481,184.836556 473.827245,192 464.996269,192 L-2.84217094e-14,192 L-2.84217094e-14,160 Z" opacity=".75"/>
    <path fill="url(#f)" d="M5.68434189e-14,96 L537.009193,96 C545.840672,96 553,103.161501 553,112 L553,112 C553,120.836556 545.831214,128 537.009193,128 L5.68434189e-14,128 L5.68434189e-14,96 Z" opacity=".9"/>
    <path fill="url(#c)" d="M0,128 L803.007392,128 C811.839866,128 819,135.161501 819,144 L819,144 C819,152.836556 811.841968,160 803.007392,160 L0,160 L0,128 Z" opacity=".9"/>
    <path fill="url(#g)" d="M0,256 L918.992556,256 C927.833223,256 935,263.161501 935,272 L935,272 C935,280.836556 927.845539,288 918.992556,288 L0,288 L0,256 Z" opacity=".9"/>
    <path fill="url(#e)" d="M0,128 L277.997581,128 C286.835473,128 294,135.161501 294,144 L294,144 C294,152.836556 286.841928,160 277.997581,160 L0,160 L0,128 Z" opacity=".2" style="mix-blend-mode:overlay"/>
    <path fill="url(#f)" d="M0,256 L223.997121,256 C232.835267,256 240,263.161501 240,272 L240,272 C240,280.836556 232.833581,288 223.997121,288 L0,288 L0,256 Z" opacity=".3" style="mix-blend-mode:overlay"/>
    <path fill="url(#h)" d="M0,288 L628.000568,288 C636.83681,288 644,295.161501 644,304 L644,304 C644,312.836556 636.836514,320 628.000568,320 L0,320 L0,288 Z" opacity=".4"/>
    <path fill="url(#i)" d="M0,288 L783.997151,288 C792.83528,288 800,295.161501 800,304 L800,304 C800,312.836556 792.839588,320 783.997151,320 L0,320 L0,288 Z" opacity=".6"/>
    <path fill="url(#a)" d="M0,288 L277.997581,288 C286.835473,288 294,295.161501 294,304 L294,304 C294,312.836556 286.841928,320 277.997581,320 L0,320 L0,288 Z" opacity=".9"/>
  </g>
</svg>
