<?xml version="1.0" encoding="UTF-8"?>
<svg width="40px" height="40px" viewBox="0 0 40 40" version="1.1" xmlns="http://www.w3.org/2000/svg" xmlns:xlink="http://www.w3.org/1999/xlink">
    <!-- Generator: Sketch 44.1 (41455) - http://www.bohemiancoding.com/sketch -->
    <title>android_icon_color</title>
    <desc>Created with Sketch.</desc>
    <defs>
        <linearGradient x1="0%" y1="0%" x2="85.9570312%" y2="88.6545139%" id="linearGradient-1">
            <stop stop-color="#CDDC39" offset="0%"></stop>
            <stop stop-color="#8BC34A" offset="100%"></stop>
        </linearGradient>
    </defs>
    <g id="Page-1" stroke="none" stroke-width="1" fill="none" fill-rule="evenodd">
        <g id="Color" transform="translate(-8.000000, -8.000000)">
            <g id="android_logo" transform="translate(8.000000, 8.000000)">
                <rect id="android_icon_color" x="0" y="0" width="40" height="40"></rect>
                <path d="M11.4991382,16.9318189 L11.4995665,16.9318189 C12.3275191,16.9310675 12.9999897,17.5238821 12.9999897,18.2526908 L12.9999897,23.7901347 C13.0014689,24.1400493 12.8443141,24.4761312 12.5631339,24.7243689 C12.2819536,24.9726065 11.8998075,25.1126419 11.5008515,25.1136364 C10.6733272,25.1125093 10.0008567,24.5219488 10.0008567,23.7901347 L10,18.2541935 C10,17.5242578 10.6711856,16.9318189 11.4991382,16.9318189 Z M22.9429297,10.8345309 L22.9429297,10.8353316 C24.7680406,11.8342292 26,13.7287316 26,15.9078898 L14.0000004,15.9090909 C13.9992394,13.7295323 15.2338621,11.8310263 17.0620167,10.8341305 L16.1317695,9.03931768 C16.1078402,8.99415414 16.1020973,8.94078712 16.1158235,8.89113665 C16.1295496,8.84148618 16.1616014,8.79968876 16.2048196,8.77508023 C16.2478113,8.74965427 16.2987478,8.74360547 16.3460433,8.75830967 C16.3933388,8.77301387 16.4329724,8.80722097 16.4559293,8.85315039 L17.3956883,10.6627765 C18.2153444,10.2795245 19.1026917,10.0827904 19.9996197,10.0854577 C20.8986463,10.0826152 21.7880916,10.2797639 22.6096387,10.6639776 L23.5493977,8.85034787 C23.5813409,8.78955809 23.6416774,8.75131844 23.7076789,8.75003341 C23.7736805,8.74874838 23.83532,8.7846132 23.8693784,8.84411795 C23.9034367,8.9036227 23.9047397,8.97772718 23.8727965,9.03851696 L22.9429297,10.8345309 Z M17.1647432,14.0175334 L17.1647432,14.0179338 C17.436375,14.0068434 17.6511482,13.7719031 17.6511482,13.4858557 C17.6511482,13.1998082 17.436375,12.9648679 17.1647432,12.9537775 C16.8877616,12.9537775 16.6632848,13.1939934 16.6632848,13.486256 C16.6630704,13.7783612 16.8871553,14.0157712 17.1647432,14.0175334 Z M23.1578964,14.0195352 L23.1578964,14.0191349 C23.4352585,14.0191349 23.6608767,13.7809208 23.6608767,13.4874571 C23.6608767,13.1951945 23.434117,12.9545783 23.1586573,12.9537775 C22.8801538,12.9545783 22.655677,13.1947941 22.655677,13.4870568 C22.6549161,13.7817215 22.8809148,14.0195352 23.1578964,14.0195352 Z M14.0030664,25.5578431 L14.0026831,25.5570879 L14,16.9340837 L25.9984668,16.9318182 L26,25.5559551 C26,26.3394527 25.3575878,26.9749353 24.567988,26.9749353 L23.5905708,26.9749353 L23.5905708,29.9193757 C23.5905708,30.6526539 22.9895551,31.2484896 22.2478679,31.2484896 C21.5080972,31.2492448 20.9055483,30.6534091 20.9055483,29.9201309 L20.9055483,26.9764456 L19.0933018,26.9764456 L19.0933018,29.9201309 C19.0940684,30.6534091 18.493436,31.25 17.7517488,31.25 C17.0119782,31.25 16.4109624,30.6534091 16.4109624,29.9208861 L16.4098125,26.9764456 L15.4346951,26.9764456 C15.0536958,26.9759477 14.6885702,26.8260624 14.419955,26.5598913 C14.1513399,26.2937203 14.0013343,25.9331614 14.0030664,25.5578431 Z M28.4993618,16.9318182 L28.4993618,16.9321939 C29.3274331,16.9321939 29.9987148,17.5242571 29.9987148,18.2545686 L30,23.7912616 C30,24.5223245 29.3291466,25.1136364 28.500647,25.1136364 C28.1015639,25.1131396 27.7190957,24.9734546 27.437585,24.725385 C27.1560743,24.4773155 26.9986432,24.1412367 27.0000088,23.7912616 L27.0000088,18.2541929 C27.0000088,17.5242571 27.6708622,16.9318182 28.4993618,16.9318182 Z" id="android_icon" fill="url(#linearGradient-1)"></path>
            </g>
        </g>
    </g>
</svg>