<?xml version="1.0" encoding="UTF-8"?>
<svg width="40px" height="40px" viewBox="0 0 40 40" version="1.1" xmlns="http://www.w3.org/2000/svg" xmlns:xlink="http://www.w3.org/1999/xlink">
    <!-- Generator: Sketch 44.1 (41455) - http://www.bohemiancoding.com/sketch -->
    <title>django_icon_color</title>
    <desc>Created with Sketch.</desc>
    <defs>
        <linearGradient x1="116.326385%" y1="94.2887265%" x2="0%" y2="-9.15109833%" id="linearGradient-1">
            <stop stop-color="#1EBB7C" offset="0%"></stop>
            <stop stop-color="#2EA5FB" offset="100%"></stop>
        </linearGradient>
    </defs>
    <g id="Page-1" stroke="none" stroke-width="1" fill="none" fill-rule="evenodd">
        <g id="Color" transform="translate(-8.000000, -120.000000)">
            <g id="django_logo" transform="translate(8.000000, 120.000000)">
                <rect id="django_icon_flat" x="0" y="0" width="40" height="40"></rect>
                <path d="M14.0522378,21.3025289 C14.0421442,23.2223181 15.4498542,24.3667865 17.6962671,23.8464399 L17.6962671,18.7586178 C15.4214585,18.0658497 14.0617531,19.4674141 14.0522378,21.3025289 M17.7649877,11.4017677 L20.8589573,11.4017677 L20.8589573,26.0466015 C17.8932812,26.5314516 15.0528987,26.8389762 13.0209147,25.7027771 C10.4045517,24.2399551 10.1942168,19.5913907 12.2645493,17.5209855 C13.3142402,16.4713673 15.4274585,15.7324188 17.6962671,16.2146342 L17.6962671,11.6080769 C17.6903397,11.5104469 17.6848503,11.4132572 17.7649877,11.4017677 Z M25.9042742,14.6332525 L22.8103044,14.6332525 L22.8103044,11.4017677 L25.9042742,11.4017677 L25.9042742,14.6332525 L25.9042742,14.6332525 Z M25.9537473,16.3198005 C25.9502344,18.5981237 25.9507496,20.2352712 25.9505272,23.0031284 C25.8190869,25.7231963 25.8496782,27.8892525 24.8537033,29.1907748 C24.6572747,29.4474352 24.2401201,29.8218497 23.8911009,30.0846577 C23.5979946,30.3053087 23.0393735,30.752763 22.7222628,30.7722291 C22.4025906,30.7918544 21.5813084,30.3284352 21.2096019,30.1533766 C20.7215309,29.9235031 20.2703454,29.6182478 19.765808,29.4658778 C20.942696,28.7365897 22.0598653,28.1898239 22.5159543,26.7156577 C22.9126171,25.4336038 22.8597775,23.5758005 22.8597775,21.7652783 C22.8597775,19.9775148 22.8677541,17.8990605 22.8677541,16.3206061 L25.9537468,16.3199036 L25.9537473,16.3198005 Z" id="django_icon" fill="url(#linearGradient-1)"></path>
            </g>
        </g>
    </g>
</svg>