<?xml version="1.0" encoding="UTF-8"?>
<svg width="40px" height="40px" viewBox="0 0 40 40" version="1.1" xmlns="http://www.w3.org/2000/svg" xmlns:xlink="http://www.w3.org/1999/xlink">
    <!-- Generator: Sketch 44.1 (41455) - http://www.bohemiancoding.com/sketch -->
    <title>go_icon_color</title>
    <desc>Created with Sketch.</desc>
    <defs>
        <linearGradient x1="1.44424438%" y1="0%" x2="100%" y2="100%" id="linearGradient-1">
            <stop stop-color="#17EAEA" offset="0%"></stop>
            <stop stop-color="#6278DF" offset="100%"></stop>
        </linearGradient>
    </defs>
    <g id="Page-1" stroke="none" stroke-width="1" fill="none" fill-rule="evenodd">
        <g id="Color" transform="translate(-176.000000, -64.000000)">
            <g id="go_logo" transform="translate(176.000000, 64.000000)">
                <rect id="go_icon_flat" x="0" y="0" width="40" height="40"></rect>
                <g id="go_icon" transform="translate(9.000000, 10.000000)">
                    <path d="M1.64,5.50046083 C0.919272727,5.25898618 0.426181818,4.83686636 0.290909091,4.08552995 C0.16,3.35410138 0.338181818,2.70009217 0.962545455,2.26949309 C1.72109091,1.74599078 2.53163636,1.81824885 3.38436364,2.15152074 L2.60254545,3.21769585 C2.48981818,3.19483871 2.36509091,3.15612903 2.23890909,3.14654378 C1.78218182,3.11115207 1.38436364,3.64976959 1.67672727,3.97677419 C2.18509091,4.54451613 1.74581818,4.97585253 1.64036364,5.50082949 M1.704,15.7714286 C1.58581818,12.2764977 1.592,7.23612903 1.89963636,5.91889401 C2.71854545,2.40995392 4.42218182,1.12774194 7.86618182,0.546359447 C9.23854545,0.314101382 10.6516364,0.265069124 12.0469091,0.258801843 C12.8734545,0.255852535 13.7178182,0.434285714 14.5247273,0.645898618 C16.7101818,1.21843318 18.0312727,2.7159447 18.752,4.83981567 C19.1654545,6.05861751 19.4101818,11.9756682 19.5141818,15.6106912 C17.3385455,18.1592627 14.1243636,19.7714286 10.5389091,19.7714286 C7.02981818,19.7714286 3.87563636,18.2267281 1.70327273,15.7714286 L1.704,15.7714286 Z M13.8603636,7.11041475 C15.5352727,7.11410138 16.7243636,5.96387097 16.7392727,4.32589862 C16.7538182,2.74248848 15.4556364,1.44294931 13.8585455,1.44221198 C12.2858182,1.44147465 10.9749091,2.73179724 10.9749091,4.28092166 C10.9749091,5.83557604 12.2716364,7.10709677 13.8607273,7.11041475 L13.8603636,7.11041475 Z M6.84836364,1.76221198 C5.236,1.7559447 3.95381818,3.00018433 3.95090909,4.57400922 C3.94727273,6.13861751 5.24327273,7.41493088 6.83381818,7.41456221 C8.40109091,7.41382488 9.69927273,6.14746544 9.708,4.61124424 C9.71672727,3.03041475 8.44981818,1.7681106 6.84836364,1.76221198 L6.84836364,1.76221198 Z M18.1214545,2.76313364 L17.3054545,1.77695853 C18.0170909,1.41308756 18.7272727,1.32129032 19.4509091,1.65087558 C20.1454545,1.96682028 20.4298182,2.56368664 20.4298182,3.30986175 C20.4305455,4.16774194 19.9316364,4.66801843 19.1767273,5.03410138 C19.0421818,4.69861751 18.9054545,4.37677419 18.7887273,4.0475576 C18.7661818,3.98488479 18.8007273,3.87133641 18.8494545,3.82082949 C19.1029091,3.55428571 19.2803636,3.27004608 19.0476364,2.90949309 C18.8003636,2.52792627 18.4527273,2.61013825 18.1210909,2.76276498 M12.3876364,3.54138249 C12.9105455,3.54138249 13.3330909,3.94691244 13.3403636,4.4556682 C13.3483636,4.98396313 12.9167273,5.41788018 12.384,5.41714286 C11.8578182,5.4156682 11.4094545,4.96516129 11.4232727,4.45198157 C11.4367273,3.94986175 11.8690909,3.54138249 12.3876364,3.54138249 M5.30109091,5.66267281 C4.77927273,5.6516129 4.36545455,5.23870968 4.36472727,4.72921659 C4.36472727,4.20497696 4.80909091,3.77917051 5.34472727,3.79059908 C5.88145455,3.80165899 6.29381818,4.23815668 6.27381818,4.77345622 C6.25418182,5.28442396 5.82836364,5.67410138 5.30109091,5.66304147" id="bear_shape" fill="url(#linearGradient-1)" fill-rule="nonzero"></path>
                    <g id="bear_nose" transform="translate(8.000000, 6.000000)">
                        <path d="M1.10309762,3.03802068 C0.28266899,2.95258661 -0.0339876751,2.68635361 0.002859646,2.07341893 C0.0306390717,1.6097383 0.356363633,1.37110708 0.691012154,1.12473567 C0.845598181,1.01082358 0.93584533,0.810455131 1.06783359,0.660470877 C1.23911605,0.465944075 1.39614897,0.168750349 1.60658172,0.118074073 C2.06127191,0.00868925693 2.55108219,-0.0257764528 3.01613569,0.0192042192 C3.22843959,0.0397960203 3.57086059,0.309972134 3.58367079,0.487120041 C3.61418498,0.904505627 3.88708545,0.98030098 4.14947868,1.12517379 C4.27081576,1.19220668 4.38394855,1.27953928 4.48815738,1.37227541 C4.83144199,1.67779348 4.99480804,2.06670104 4.86195618,2.51533943 C4.71327148,3.01742888 4.27743676,3.06416205 3.80748948,3.04546878 C3.82361018,3.41378454 3.83584465,3.75245395 3.8538365,4.09068524 C3.87269197,4.44016169 3.84088237,4.77036072 3.45254615,4.89975317 C3.06694469,5.02812333 2.71876629,4.97992976 2.47537246,4.56327438 C2.3999506,4.64593366 2.34511143,4.71997652 2.27717418,4.77824694 C1.78362158,5.20249646 1.19061001,4.99614032 1.11245339,4.34567307 C1.062508,3.92901769 1.10309762,3.50111714 1.10309762,3.03802068 L1.10309762,3.03802068 Z" id="Fill-13" fill-opacity="0.2" fill="#201C38"></path>
                        <path d="M0.965351974,2.83297892 C0.35895446,2.82640707 0.0594260412,2.40931356 0.210701566,1.903281 C0.365863332,1.38483494 0.986510397,1.09435911 1.47588888,1.29823255 C2.11294452,1.56373534 2.72754632,1.58023799 3.33351203,1.16942426 C3.75970311,0.880554879 4.05548922,1.26712578 4.34566188,1.48151418 C4.68347697,1.73109849 4.83964628,2.10919901 4.67527268,2.52454002 C4.53810277,2.8712417 4.20331031,2.89417016 3.88204773,2.87241002 C3.74387028,2.86320943 3.58554195,2.86510797 3.4738485,2.797783 C2.7795068,2.37981325 2.08660444,2.4786831 1.38017221,2.75309441 C1.2244347,2.81370149 1.04768271,2.81808272 0.965351974,2.83297892 Z M2.43003299,2.64414772 C2.40383684,3.23649059 2.40023847,3.73638943 2.35360358,4.23219911 C2.32049857,4.58474242 2.10531597,4.81548743 1.73986539,4.80993787 C1.35023376,4.80395018 1.26272137,4.49463504 1.2624335,4.18488177 C1.2620017,3.84256134 1.30215952,3.49673591 1.36333183,3.15967295 C1.3826191,3.05277084 1.50913783,2.92702941 1.61579355,2.88321707 C1.85400573,2.78566159 2.11064156,2.7342551 2.43003299,2.64414772 Z M2.63787491,2.73118824 C3.56136089,2.89475432 3.99546839,3.65314597 3.63577521,4.47784031 C3.56769402,4.63366621 3.26168854,4.7681701 3.07385356,4.75765514 C2.9220023,4.74918475 2.67198747,4.51873183 2.65773792,4.36801737 C2.60692891,3.82956367 2.63787491,3.28307772 2.63787491,2.73118824 Z" id="Combined-Shape" fill="#FFFFFF"></path>
                    </g>
                </g>
            </g>
        </g>
    </g>
</svg>