<?xml version="1.0" encoding="UTF-8"?>
<svg width="40px" height="40px" viewBox="0 0 40 40" version="1.1" xmlns="http://www.w3.org/2000/svg" xmlns:xlink="http://www.w3.org/1999/xlink">
    <!-- Generator: Sketch 44.1 (41455) - http://www.bohemiancoding.com/sketch -->
    <title>is_icon_color</title>
    <desc>Created with Sketch.</desc>
    <defs>
        <linearGradient x1="21.8948617%" y1="121.560956%" x2="77.9784585%" y2="8.49920319%" id="linearGradient-1">
            <stop stop-color="#201C38" offset="0%"></stop>
            <stop stop-color="#3E396B" offset="100%"></stop>
        </linearGradient>
    </defs>
    <g id="Page-1" stroke="none" stroke-width="1" fill="none" fill-rule="evenodd">
        <g id="Color" transform="translate(-176.000000, -120.000000)">
            <g id="is_icon_flat" transform="translate(176.000000, 120.000000)">
                <g id="Combined-Shape">
                    <path d="M25.9310345,21.508642 C28.1609195,21.508642 29.9770115,23.3617284 29.9770115,25.637037 C29.9770115,27.9123457 28.1609195,29.7654321 25.9310345,29.7654321 C23.954023,29.7654321 22.3218391,28.3111111 21.954023,26.4111111 L20.5057471,26.4111111 L19.4942529,26.4111111 C19.0804598,26.4111111 18.7356322,26.0592593 18.7356322,25.637037 C18.7356322,25.2148148 19.0804598,24.862963 19.4942529,24.862963 L20.5057471,24.862963 L21.954023,24.862963 C22.3218391,22.962963 23.954023,21.508642 25.9310345,21.508642 Z M16.7126437,22.5407407 C17.5632184,23.291358 18.1149425,24.3938272 18.091954,25.6604938 C18.091954,27.9358025 16.2758621,29.7888889 14.045977,29.7888889 C11.816092,29.7888889 10,27.9592593 10,25.6604938 C10,23.3617284 11.816092,21.508642 14.045977,21.508642 C14.5287356,21.508642 14.9655172,21.6024691 15.3793103,21.7432099 L16.1149425,20.4530864 L16.6206897,19.5617284 C16.8505747,19.1864198 17.3103448,19.0691358 17.6781609,19.2802469 C18.045977,19.5148148 18.1609195,19.9839506 17.954023,20.3592593 L17.4482759,21.2506173 L16.7126437,22.5407407 Z M14.045977,28.217284 C15.4482759,28.217284 16.5747126,27.0679012 16.5517241,25.6604938 C16.5517241,24.2530864 15.4252874,23.1037037 14.045977,23.1037037 C12.6666667,23.1037037 11.5402299,24.2530864 11.5402299,25.6604938 C11.5402299,27.0679012 12.6666667,28.217284 14.045977,28.217284 Z M25.9310345,28.217284 C27.3103448,28.217284 28.4367816,27.0679012 28.4367816,25.6604938 C28.4367816,24.2530864 27.3103448,23.1037037 25.9310345,23.1037037 C24.5517241,23.1037037 23.4252874,24.2530864 23.4252874,25.6604938 C23.4252874,27.0679012 24.5517241,28.217284 25.9310345,28.217284 Z" fill="url(#linearGradient-1)" fill-rule="nonzero"></path>
                    <path d="M19.9770115,19.3037037 C17.7471264,19.3037037 15.9310345,17.4740741 15.9310345,15.1753086 C15.9310345,12.8765432 17.7701149,11.0234568 20,11.0234568 C22.2298851,11.0234568 24.045977,12.8765432 24.045977,15.1518519 C24.045977,16.3950617 23.4942529,17.5209877 22.6436782,18.2716049 L23.3793103,19.5851852 L23.8850575,20.4765432 C24.091954,20.8518519 23.9770115,21.3444444 23.6091954,21.5555556 C23.4712644,21.6259259 23.3563218,21.6493827 23.2183908,21.6493827 C22.9425287,21.6493827 22.6896552,21.508642 22.5517241,21.2506173 L22.045977,20.3592593 L21.3103448,19.0691358 C20.8735632,19.2098765 20.4367816,19.3037037 19.9770115,19.3037037 Z M19.9770115,12.5950617 C18.5977011,12.5950617 17.4712644,13.7444444 17.4712644,15.1518519 C17.4712644,16.5592593 18.5977011,17.708642 19.9770115,17.708642 C21.3563218,17.708642 22.4827586,16.5592593 22.4827586,15.1518519 C22.4827586,13.7444444 21.3563218,12.5950617 19.9770115,12.5950617 Z" fill="#FFD141"></path>
                </g>
            </g>
        </g>
    </g>
</svg>