<?xml version="1.0" encoding="UTF-8"?>
<svg width="40px" height="40px" viewBox="0 0 40 40" version="1.1" xmlns="http://www.w3.org/2000/svg" xmlns:xlink="http://www.w3.org/1999/xlink">
    <!-- Generator: Sketch 44.1 (41455) - http://www.bohemiancoding.com/sketch -->
    <title>java_icon_color</title>
    <desc>Created with Sketch.</desc>
    <defs>
        <linearGradient x1="50%" y1="0%" x2="50%" y2="100%" id="linearGradient-1">
            <stop stop-color="#FE554E" offset="0%"></stop>
            <stop stop-color="#F30400" offset="100%"></stop>
        </linearGradient>
    </defs>
    <g id="Page-1" stroke="none" stroke-width="1" fill="none" fill-rule="evenodd" opacity="0.800000012">
        <g id="Color" transform="translate(-8.000000, -64.000000)">
            <g id="java_logo" transform="translate(8.000000, 64.000000)">
                <rect id="java_icon_flat" x="0" y="0" width="40" height="40"></rect>
                <path d="M16.1255417,25.5397384 L16.1255417,25.5389336 C12.2950975,26.5980885 18.4563922,28.7852113 23.3338299,26.718008 C22.5350758,26.4105634 21.9622156,26.0564386 21.9622156,26.0564386 C19.7869718,26.4628773 18.7785753,26.4950704 16.8040358,26.2721328 C15.1740249,26.0870221 16.1255417,25.5397384 16.1255417,25.5397384 Z M15.5295233,22.8411469 L15.5299296,22.8411469 C11.3106717,24.22666 17.8782503,25.7988934 23.7742416,24.0926559 C23.1485645,23.8741449 22.7504063,23.4745473 22.7504063,23.4745473 C19.8670098,24.0230382 18.2024648,24.0057344 16.0926327,23.7896378 C14.4618093,23.6230382 15.5295233,22.8411469 15.5295233,22.8411469 Z M20.5532232,18.2640845 L20.5536295,18.2636821 C16.4802275,13.6206237 25.0089382,11.5135815 25.0089382,11.5135815 C19.5761105,14.6302817 20.5796316,15.534507 21.8886782,17.3546278 C23.289545,19.306338 20.2383532,20.8636821 20.2383532,20.8636821 C20.2383532,20.8636821 21.7558234,19.6330986 20.5532232,18.2640845 Z M27.0050108,27.5357143 C27.0050108,27.5357143 27.7091008,28.1099598 26.2290087,28.5538229 C23.4142741,29.3972837 14.5117822,29.6524145 12.0387324,28.5880282 C11.1501896,28.2049296 12.816766,27.6745473 13.3412784,27.5626761 C13.8877302,27.4459759 14.1997562,27.4669014 14.1997562,27.4669014 C13.2112676,26.7779678 7.81013001,28.8190141 11.4565276,29.4045272 C21.4011376,30.9988934 29.5836945,28.6862173 27.0050108,27.5349095 L27.0050108,27.5357143 Z M16.5838299,20.0447686 C16.5838299,20.0447686 12.0557963,21.1091549 14.9802275,21.4958753 C16.2153304,21.6592555 18.6761918,21.621831 20.9704767,21.4314889 C22.8446641,21.2757545 24.7253521,20.9429577 24.7253521,20.9429577 C24.7253521,20.9429577 24.0647346,21.2234406 23.5865385,21.5465795 C18.9874052,22.7425553 10.1048212,22.1852113 12.6623781,20.9618712 C14.8238082,19.927666 16.5830173,20.0443662 16.5830173,20.0443662 L16.5838299,20.0447686 Z M24.7066631,24.5357143 L24.7058505,24.5357143 C24.6847237,24.5932596 24.6124052,24.6576459 24.6124052,24.6576459 C30.8549567,23.0339034 28.5598592,18.9353119 25.5752979,19.9735412 C25.3136511,20.0648893 25.1763272,20.278169 25.1763272,20.278169 C25.1763272,20.278169 25.342091,20.212173 25.7109967,20.1357143 C27.2195287,19.8250503 29.3813651,22.1332998 24.7066631,24.5357143 Z M21.8886782,6.47937626 C21.8886782,6.47937626 24.4767064,9.04074447 19.4330986,12.9791751 C15.3881365,16.1397384 18.5108342,17.9409457 19.4314735,20.000503 C17.0697454,17.8930584 15.3377573,16.0375252 16.4997291,14.311167 C18.2061213,11.777163 22.9324215,10.5485915 21.8882719,6.47897384 L21.8886782,6.47937626 Z M17.0429307,31.0479879 C21.529117,31.3312877 28.4200975,30.889839 28.5830173,28.7896378 C28.5830173,28.7896378 28.2701788,29.5856137 24.8752709,30.2174044 C21.0460455,30.9304829 16.3217768,30.8475855 13.5208559,30.3904427 C13.5208559,30.3904427 14.0953413,30.8600604 17.0433369,31.0475855 L17.0429307,31.0479879 Z" id="java_icon" fill="url(#linearGradient-1)"></path>
            </g>
        </g>
    </g>
</svg>