<?xml version="1.0" encoding="UTF-8"?>
<svg width="40px" height="40px" viewBox="0 0 40 40" version="1.1" xmlns="http://www.w3.org/2000/svg" xmlns:xlink="http://www.w3.org/1999/xlink">
    <!-- Generator: Sketch 44.1 (41455) - http://www.bohemiancoding.com/sketch -->
    <title>js_icon_color</title>
    <desc>Created with Sketch.</desc>
    <defs>
        <linearGradient x1="99.985981%" y1="100%" x2="-18.6328125%" y2="-22.6660156%" id="linearGradient-1">
            <stop stop-color="#FCB43A" offset="0%"></stop>
            <stop stop-color="#FEDD4E" offset="100%"></stop>
        </linearGradient>
    </defs>
    <g id="Page-1" stroke="none" stroke-width="1" fill="none" fill-rule="evenodd">
        <g id="Color" transform="translate(-176.000000, -8.000000)">
            <g id="js_logo" transform="translate(176.000000, 8.000000)">
                <rect id="js_icon_flat" x="0" y="0" width="40" height="40"></rect>
                <path d="M12.5,10 L27.5,10 C28.8807119,10 30,11.1192881 30,12.5 L30,27.5 C30,28.8807119 28.8807119,30 27.5,30 L12.5,30 C11.1192881,30 10,28.8807119 10,27.5 L10,12.5 L10,12.5 C10,11.1192881 11.1192881,10 12.5,10 L12.5,10 Z M25.5211905,23.2341308 C25.4245238,22.6317499 25.0314286,22.1255594 23.8671429,21.6531784 C23.4628571,21.4674641 23.0119048,21.3341308 22.877619,21.0279403 C22.83,20.8493689 22.8235714,20.7493689 22.8538095,20.6410356 C22.9404762,20.2905594 23.3585714,20.1815118 23.6902381,20.2815118 C23.9035714,20.3529403 24.1059524,20.5177022 24.227619,20.7803213 C24.7978571,20.4112737 24.7966667,20.4136546 25.1947619,20.1598451 C25.0490476,19.9336546 24.9709524,19.8293689 24.8757143,19.7327022 C24.5328571,19.3493689 24.0657143,19.1524641 23.3185714,19.1674641 C23.1890476,19.1841308 23.0585714,19.2012737 22.9290476,19.2174641 C22.5561905,19.311988 22.2004762,19.5079403 21.9921429,19.7703213 C21.3669048,20.4798451 21.5452381,21.721988 22.3064286,22.2331784 C23.0559524,22.7957975 24.157381,22.9236546 24.2980952,23.4498451 C24.435,24.0943689 23.8242857,24.3027022 23.2178571,24.2284165 C22.7709524,24.1355594 22.5221429,23.9084165 22.2535714,23.4950832 C21.7583333,23.7815118 21.7583333,23.7815118 21.25,24.0741308 C21.3704762,24.3379403 21.497619,24.4574641 21.6995238,24.6860356 C22.6566667,25.6565118 25.0519048,25.6088927 25.4809524,24.139607 C25.4985714,24.089607 25.6142857,23.7527022 25.5214286,23.2338927 L25.5211905,23.2341308 Z M20.7935714,19.167381 L19.5578571,19.167381 C19.5578571,20.2347619 19.5530952,21.2945238 19.5530952,22.3621429 C19.5530952,23.0414286 19.5878571,23.6645238 19.477381,23.855 C19.2964286,24.2311905 18.8280952,24.1842857 18.6145238,24.1116667 C18.397381,24.0045238 18.2869048,23.8528571 18.1588095,23.6378571 C18.1230952,23.5766667 18.0969048,23.5288095 18.0880952,23.525 C17.7528571,23.7297619 17.4190476,23.9357143 17.0833333,24.1404762 C17.2504762,24.4833333 17.4966667,24.7809524 17.8119048,24.9742857 C18.2828571,25.2566667 18.9157143,25.3433333 19.577619,25.1914286 C20.0080952,25.0657143 20.38,24.8057143 20.5745238,24.4104762 C20.8559524,23.8914286 20.7954762,23.2635714 20.7930952,22.5690476 C20.7992857,21.4361905 20.7930952,20.3035714 20.7930952,19.1666667 L20.7935714,19.167381 Z" id="js_icon" fill="url(#linearGradient-1)"></path>
            </g>
        </g>
    </g>
</svg>