<?xml version="1.0" encoding="UTF-8"?>
<svg width="40px" height="40px" viewBox="0 0 40 40" version="1.1" xmlns="http://www.w3.org/2000/svg" xmlns:xlink="http://www.w3.org/1999/xlink">
    <!-- Generator: Sketch 44.1 (41455) - http://www.bohemiancoding.com/sketch -->
    <title>laravel_logo_color</title>
    <desc>Created with Sketch.</desc>
    <defs>
        <linearGradient x1="90.775578%" y1="95.7908163%" x2="6.91911739%" y2="0%" id="linearGradient-1">
            <stop stop-color="#D72A2A" offset="0%"></stop>
            <stop stop-color="#FF3F3F" offset="100%"></stop>
        </linearGradient>
    </defs>
    <g id="Page-1" stroke="none" stroke-width="1" fill="none" fill-rule="evenodd">
        <g id="Color" transform="translate(-64.000000, -120.000000)">
            <g id="laravel_logo" transform="translate(64.000000, 120.000000)">
                <rect id="laravel_icon_flat" x="0" y="0" width="40" height="40"></rect>
                <path d="M31.0254255,19.7496527 C31.1672652,19.9101516 31.131768,20.0394411 30.8703116,20.1107628 C30.6458937,20.1719815 28.5410184,20.7357035 27.9490999,20.8942018 C28.8133625,22.0576067 30.4633863,24.2814351 30.6035357,24.4897986 C30.7941468,24.7732351 30.6201408,24.8566105 30.3384003,24.9732961 C30.0566599,25.0899817 23.8017925,27.352822 23.3747819,27.4830117 C22.8278564,27.6497126 22.5826571,27.7324378 22.2263924,27.2322852 C21.9595667,26.8576709 20.5166597,24.2431234 19.8091516,22.9542302 C18.4702007,23.3070378 16.0197496,23.9504341 15.3131363,24.1212362 C14.6234264,24.2879371 14.3288592,23.8719102 14.2155565,23.6154819 C14.1023035,23.3591037 10.0375744,14.5472157 9.78263081,13.941731 C9.52773696,13.3362463 9.80753852,13.2221115 10.0624821,13.200705 C10.3173759,13.1792984 13.896529,12.8801572 14.3638593,12.8588007 C14.8311895,12.8373941 14.8738458,12.9444268 15.0791729,13.2507202 L20.2374548,21.9265167 L26.7234517,20.3633899 C26.3641046,19.8509336 24.7326746,17.5240738 24.5750252,17.3021061 C24.3977877,17.0524299 24.5794499,16.9364945 24.8675043,16.8874296 C25.1555587,16.8384146 27.6371818,16.4193368 27.8499165,16.3881273 C28.0626512,16.3569177 28.2310889,16.2811446 28.5767144,16.7002225 C28.92234,17.1193003 30.8836355,19.5891537 31.0254255,19.7496527 Z M19.2341862,22.1749925 C19.3116934,22.1582874 19.3615586,22.1136738 19.2784831,21.9688796 C19.1954077,21.8240355 14.4360966,13.5595644 14.4360966,13.5595644 C14.3921477,13.4837413 14.4047258,13.4584336 14.285308,13.4647855 C14.16594,13.4710874 10.7916664,13.77453 10.7350896,13.77453 C10.6785626,13.77453 10.6754304,13.8628069 10.7350896,13.9742409 C10.7947985,14.0856749 15.0919002,22.999494 15.1140735,23.0663644 C15.1361971,23.1332348 15.1361971,23.1555416 15.3300397,23.110928 C15.5238823,23.0663644 19.1566293,22.1916976 19.2341862,22.1749925 Z M29.4766732,24.1063317 C29.4187043,24.0146037 27.4300153,21.2971747 27.3305833,21.1387764 C27.2311513,20.9803781 27.1814354,21.0137383 27.0239848,21.0637535 L20.699714,22.7192585 C20.699714,22.7192585 22.6407254,26.0986394 22.7898734,26.3153555 C22.9390213,26.5320716 23.0301507,26.5154165 23.1461381,26.4654013 C23.2621255,26.415386 29.2280933,24.3897681 29.4103521,24.3230978 C29.5926109,24.2564275 29.534642,24.1980596 29.4766732,24.1063317 Z M29.882107,19.5891537 C30.0239467,19.5579442 30.1302395,19.5089293 30.068194,19.4286548 C30.0061484,19.3484303 28.3639798,17.2574925 28.2443631,17.0925421 C28.1246967,16.9275918 28.0404778,16.95435 27.9429848,16.9766068 C27.8454918,16.9988636 25.6873209,17.3912333 25.5543804,17.4090887 C25.4214398,17.4268941 25.4657368,17.5027173 25.5189329,17.5784904 L27.4181332,20.19994 C27.4181332,20.19994 29.7402673,19.6203632 29.882107,19.5891537 Z" id="laravel_icon" fill="url(#linearGradient-1)"></path>
            </g>
        </g>
    </g>
</svg>