<?xml version="1.0" encoding="UTF-8"?>
<svg width="40px" height="40px" viewBox="0 0 40 40" version="1.1" xmlns="http://www.w3.org/2000/svg" xmlns:xlink="http://www.w3.org/1999/xlink">
    <!-- Generator: Sketch 44.1 (41455) - http://www.bohemiancoding.com/sketch -->
    <title>php_icon_color</title>
    <desc>Created with Sketch.</desc>
    <defs>
        <linearGradient x1="0%" y1="0%" x2="100%" y2="100%" id="linearGradient-1">
            <stop stop-color="#9FB4FC" offset="0%"></stop>
            <stop stop-color="#8995C7" offset="100%"></stop>
        </linearGradient>
    </defs>
    <g id="Page-1" stroke="none" stroke-width="1" fill="none" fill-rule="evenodd">
        <g id="Color" transform="translate(-120.000000, -8.000000)" fill="url(#linearGradient-1)">
            <g id="php_logo" transform="translate(120.000000, 8.000000)">
                <g id="php_icon_flat">
                    <path d="M7,26 L8.926187,16.3622066 L13.3804944,16.3622066 C15.3066814,16.4811917 16.2697749,17.4330725 16.2697749,19.098864 C16.2697749,21.9545065 13.9824279,23.6202979 11.9358542,23.5013128 L9.76889381,23.5013128 L9.28734706,26 L7,26 Z M10.2504406,21.7165363 L11.6950808,21.7165363 C12.778561,21.5975512 13.7416545,21.2405958 13.8620412,19.2178491 C13.8620412,18.5039384 13.2601077,18.1469831 12.4174009,18.1469831 L10.852374,18.1469831 L10.2504406,21.7165363 Z M15.9626206,23.6377934 L17.8888076,14 L20.1761546,14 L19.6946079,16.4986872 L21.8615683,16.4986872 C23.7877552,16.6176723 24.5100754,17.5695531 24.269302,18.7594042 L23.4265952,23.6377934 L21.0188614,23.6377934 L21.8615683,19.2353446 C21.9819549,18.6404191 21.9819549,18.2834637 21.1392481,18.2834637 L19.3334478,18.2834637 L18.2499676,23.6377934 L15.9626206,23.6377934 Z M23.7302251,26 L25.6564121,16.3622066 L30.1107195,16.3622066 C32.0369065,16.4811917 33,17.4330725 33,19.098864 C33,21.9545065 30.7126529,23.6202979 28.6660793,23.5013128 L26.4991189,23.5013128 L26.0175721,26 L23.7302251,26 Z M26.9806656,21.7165363 L28.4253059,21.7165363 C29.5087861,21.5975512 30.4718796,21.2405958 30.5922663,19.2178491 C30.5922663,18.5039384 29.9903328,18.1469831 29.147626,18.1469831 L27.5825991,18.1469831 L26.9806656,21.7165363 Z" id="php_icon"></path>
                </g>
            </g>
        </g>
    </g>
</svg>