<?xml version="1.0" encoding="UTF-8"?>
<svg width="40px" height="40px" viewBox="0 0 40 40" version="1.1" xmlns="http://www.w3.org/2000/svg" xmlns:xlink="http://www.w3.org/1999/xlink">
    <!-- Generator: Sketch 44.1 (41455) - http://www.bohemiancoding.com/sketch -->
    <title>python_icon_color</title>
    <desc>Created with Sketch.</desc>
    <defs>
        <linearGradient x1="50%" y1="0%" x2="50%" y2="100%" id="linearGradient-1">
            <stop stop-color="#358DC4" offset="0%"></stop>
            <stop stop-color="#1D70A3" offset="100%"></stop>
        </linearGradient>
    </defs>
    <g id="Page-1" stroke="none" stroke-width="1" fill="none" fill-rule="evenodd">
        <g id="Color" transform="translate(-232.000000, -8.000000)">
            <g id="python_logo" transform="translate(232.000000, 8.000000)">
                <rect id="python_icon_flat" x="0" y="0" width="40" height="40"></rect>
                <path d="M19.7189418,11.0004286 L19.7189418,11 C24.9130159,11 24.511746,13.6314286 24.511746,13.6314286 L24.511746,17.9797143 C24.511746,20.609 21.8687831,20.5652857 21.8687831,20.5652857 L17.1644444,20.5652857 C14.3437037,20.5652857 14.4325926,23.3767143 14.4325926,23.3767143 L14.4325926,25.733 L12.775873,25.733 C12.775873,25.733 10,25.913 10,20.8352857 C10,15.7575714 13.1805291,16.1227143 13.1805291,16.1227143 L19.8078307,16.1227143 L19.8078307,15.4438571 L15.0645503,15.4438571 L15.0586243,13.1827143 C15.0586243,13.1827143 14.7483598,11.0004286 19.7189418,11.0004286 Z M17.1030688,12.521 L17.1034921,12.521 C16.6311111,12.521 16.2501587,12.9071429 16.2501587,13.385 C16.2501587,13.8632857 16.6315344,14.249 17.1034921,14.249 C17.575873,14.249 17.9568254,13.8628571 17.9568254,13.385 C17.9568254,12.9067143 17.5754497,12.521 17.1030688,12.521 Z M19.8004137,30.7333604 C14.6059163,30.7333604 15.0071861,28.1019318 15.0071861,28.1019318 L15.0071861,23.7540747 C15.0071861,21.1247889 17.6505724,21.1685032 17.6505724,21.1685032 L22.3544877,21.1685032 C25.1752285,21.1685032 25.0863396,18.3570747 25.0863396,18.3570747 L25.0863396,16.0007889 L26.7430592,16.0007889 C26.7430592,16.0007889 29.5189322,15.8207889 29.5189322,20.8985032 C29.5189322,25.9762175 26.3384031,25.6110747 26.3384031,25.6110747 L19.7115248,25.6110747 L19.7115248,26.2895032 L24.4548052,26.2895032 L24.4607311,28.5506461 C24.4607311,28.5506461 24.7705724,30.7333604 19.8004137,30.7333604 Z M22.6270803,29.0117889 L22.6270803,29.0109318 C23.0994613,29.0109318 23.4804137,28.6247889 23.4804137,28.1473604 C23.4804137,27.6690747 23.099038,27.2833604 22.6270803,27.2833604 C22.1546994,27.2833604 21.773747,27.6695032 21.773747,28.1477889 C21.773747,28.6260747 22.1551227,29.0117889 22.6270803,29.0117889 Z" id="python_icon" fill="url(#linearGradient-1)"></path>
            </g>
        </g>
    </g>
</svg>