<?xml version="1.0" encoding="UTF-8"?>
<svg width="40px" height="40px" viewBox="0 0 40 40" version="1.1" xmlns="http://www.w3.org/2000/svg" xmlns:xlink="http://www.w3.org/1999/xlink">
    <!-- Generator: Sketch 44.1 (41455) - http://www.bohemiancoding.com/sketch -->
    <title>rails_logo_color</title>
    <desc>Created with Sketch.</desc>
    <defs>
        <linearGradient x1="-6.50503518%" y1="7.26515034%" x2="50%" y2="100%" id="linearGradient-1">
            <stop stop-color="#FF5592" offset="0%"></stop>
            <stop stop-color="#EF3636" offset="100%"></stop>
        </linearGradient>
    </defs>
    <g id="Page-1" stroke="none" stroke-width="1" fill="none" fill-rule="evenodd">
        <g id="Color" transform="translate(-232.000000, -64.000000)">
            <g id="rails_logo" transform="translate(232.000000, 64.000000)">
                <rect id="rails_logo_color" x="0" y="0" width="40" height="40"></rect>
                <path d="M26.9976134,10.854741 L28.1228094,11.6715063 L27.9185081,11.9776397 L26.9634607,11.467315 L26.9976134,10.854741 Z M23.7244838,9.86817453 L23.8607873,10.7527989 L22.462369,10.7868819 L22.2583753,9.8000084 L23.7244838,9.86817453 Z M19.3941561,10.3447233 L20.2122847,11.2634307 L19.0873964,11.9097807 L18.2689602,10.9232142 L19.3941561,10.3447233 Z M15.5755049,13.2709538 L16.7686988,14.053636 L15.8484196,15.1421446 L14.6207652,14.3259935 L15.5755049,13.2709538 Z M14.1093964,18.3751227 L13.6321804,19.7022128 L12.0294607,19.1915809 L12.5408295,17.7625487 L14.1093964,18.3751227 Z M12.6091351,23.5809267 L12.3023753,25.3501754 L10.6313501,25.1459841 L10.8359591,23.4449015 L12.6091351,23.5809267 Z M22.087919,18.5449239 L21.8146967,19.6678226 L20.6556556,18.6809491 L21.0984112,17.7963247 L22.087919,18.5449239 Z M21.7466988,15.6186934 L22.462369,14.9720364 L23.1445018,15.9926859 L22.7352836,16.7075091 L21.7466988,15.6186934 Z M21.9174628,21.5734036 L21.9854607,22.6963023 L20.5535049,22.0837284 L20.6218105,20.8929706 L21.9174628,21.5734036 Z M22.5306746,25.1122081 L23.1786546,26.4396052 L21.3716335,26.337356 L21.0304133,25.1122081 L22.5306746,25.1122081 Z M24.3041582,14.734069 L23.861095,13.9176108 L24.815527,13.6793364 L24.9518305,14.2237443 L24.3041582,14.734069 Z M26.7930044,13.9854699 L26.7930044,13.4751451 L27.7135913,13.6790294 L27.7135913,14.087412 L26.7930044,13.9854699 Z M25.9065702,12.9642062 C24.0312436,13.1683976 20.7236535,15.0739785 20.2122847,19.2591329 C19.7009159,23.4442874 21.7128537,28.0040484 21.7128537,28.0040484 L12.6429802,28.0040484 C12.6429802,28.0040484 12.404526,26.5068501 12.9838927,23.6484787 C13.5635671,20.7901073 14.4158485,18.8845263 15.8822647,16.1624871 C17.3483732,13.4401409 19.7009159,11.1943434 23.1106567,10.888517 C26.5200897,10.5820765 29.2141603,13.3044227 29.2141603,13.3044227 L28.8049422,13.9173038 C28.8049422,13.9173038 27.7822046,12.7600149 25.9065702,12.9642062 Z" id="rails_icon" fill="url(#linearGradient-1)"></path>
            </g>
        </g>
    </g>
</svg>