<?xml version="1.0" encoding="UTF-8"?>
<svg width="40px" height="40px" viewBox="0 0 40 40" version="1.1" xmlns="http://www.w3.org/2000/svg" xmlns:xlink="http://www.w3.org/1999/xlink">
    <!-- Generator: Sketch 44.1 (41455) - http://www.bohemiancoding.com/sketch -->
    <title>reactis_icon_color</title>
    <desc>Created with Sketch.</desc>
    <defs>
        <linearGradient x1="0%" y1="0%" x2="100%" y2="100%" id="linearGradient-1">
            <stop stop-color="#01ADFF" offset="0%"></stop>
            <stop stop-color="#3369E6" offset="100%"></stop>
        </linearGradient>
    </defs>
    <g id="Page-1" stroke="none" stroke-width="1" fill="none" fill-rule="evenodd">
        <g id="Color" transform="translate(-120.000000, -120.000000)" fill="url(#linearGradient-1)">
            <g id="reactis_icon" transform="translate(120.000000, 120.000000)">
                <path d="M17.5969089,15.9530944 C17.3624173,17.4073141 18.3003836,18.7084581 19.7854968,19.0146097 C20.3326438,19.0911475 20.8797908,19.0146097 21.3487739,18.784996 L22.364904,20.2392158 C22.4430678,20.3157537 22.5212317,20.3922915 22.6775594,20.4688294 C22.912051,20.5453673 23.2247064,20.3157537 23.2247064,20.08614 L23.2247064,20.08614 C23.2247064,19.9330642 23.2247064,19.8565264 23.1465425,19.7034506 L22.1304124,18.2492308 C22.5212317,17.8665414 22.7557233,17.4073141 22.8338871,16.871549 C23.0683787,15.4173292 22.1304124,14.1161852 20.6452992,13.8100337 C19.2383498,13.6569579 17.8314004,14.5754125 17.5969089,15.9530944 Z M18.5348751,16.182708 C18.6912028,15.2642534 19.5510052,14.6519504 20.4889715,14.8050261 C21.4269377,14.9581019 22.0522486,15.8000186 21.8959209,16.7184732 L21.8959209,16.7184732 C21.7395932,17.6369278 20.8797908,18.2492308 19.9418245,18.0961551 C19.0038583,17.9430793 18.3785474,17.0246247 18.5348751,16.182708 Z" id="Shape"></path>
                <path d="M21.9740847,22.7649659 L20.1763161,22.7649659 C20.0199884,22.7649659 19.9418245,22.8415038 19.8636607,22.9180417 L19.8636607,22.9180417 C19.7073329,23.0711174 19.7073329,23.3772689 19.8636607,23.6068826 C19.9418245,23.6834205 20.0981522,23.7599584 20.1763161,23.7599584 L21.9740847,23.7599584 C22.0522486,24.2957235 22.364904,24.7549508 22.6775594,25.1376402 C23.6936895,26.1326327 25.4132943,26.1326327 26.4294244,25.1376402 C27.4455545,24.1426478 27.4455545,22.4588144 26.4294244,21.4638219 C25.4132943,20.4688294 23.6936895,20.4688294 22.6775594,21.4638219 C22.2867401,21.7699734 22.0522486,22.2292007 21.9740847,22.7649659 Z M23.3810341,22.0761249 L23.3810341,22.0761249 C24.0063449,21.4638219 25.1006389,21.387284 25.8041136,22.0761249 C26.4294244,22.688428 26.4294244,23.7599584 25.8041136,24.4487993 C25.1788028,25.0611024 24.0845088,25.0611024 23.3810341,24.4487993 C22.6775594,23.7599584 22.6775594,22.688428 23.3810341,22.0761249 Z" id="Shape"></path>
                <path d="M19.160186,19.6269127 L19.160186,19.6269127 C19.0820221,19.3972991 18.8475305,19.2442233 18.5348751,19.2442233 C18.3785474,19.2442233 18.3003836,19.3207612 18.2222197,19.473837 L17.2842535,21.0045946 C16.8152703,20.8515188 16.2681234,20.774981 15.7209764,20.9280567 C14.314027,21.3107461 13.4542246,22.688428 13.76688,24.0661099 C14.1576993,25.4437918 15.5646487,26.2857085 16.971598,25.9795569 C18.3785474,25.5968675 19.2383498,24.2191857 18.9256944,22.8415038 C18.7693667,22.3057386 18.5348751,21.8465113 18.1440559,21.5403598 L19.0820221,20.0096021 C19.160186,19.9330642 19.160186,19.7799885 19.160186,19.6269127 Z M16.8152703,25.1376402 C15.8773041,25.3672539 15.0175017,24.8314887 14.7830101,23.9130341 C14.5485186,22.9945795 15.0956655,22.1526628 16.0336318,21.9230492 C16.971598,21.6934355 17.8314004,22.2292007 18.065892,23.1476553 C18.2222197,23.989572 17.6750727,24.9080266 16.8152703,25.1376402 Z" id="Shape"></path>
                <path d="M27.75821,16.9480868 C28.1490292,14.3457988 27.6018822,12.3558139 26.1949329,11.5138972 C24.8661473,10.7485184 22.9902148,11.1312078 21.0361185,12.5854276 C20.8797908,12.7385033 20.8016269,12.968117 20.9579546,13.1211927 C21.1142823,13.2742685 21.3487739,13.3508064 21.5051016,13.1977306 C23.2247064,11.9731245 24.7879835,11.5904351 25.8041136,12.2027381 C26.8984076,12.8150412 27.2892268,14.4988746 27.0547353,16.6419353 C26.2730967,16.4123217 25.3351305,16.182708 24.3971642,16.0296323 C24.1626726,16.0296323 24.0063449,16.1061701 23.9281811,16.3357838 C23.9281811,16.5653974 24.0063449,16.7184732 24.2408365,16.7950111 C25.2569666,16.9480868 26.116769,17.1777005 26.8984076,17.483852 C26.7420798,18.172693 26.5075883,18.9380718 26.2730967,19.7799885 C26.1949329,20.0096021 26.2730967,20.2392158 26.5075883,20.3157537 L26.663916,20.3157537 C26.8202437,20.3157537 26.9765714,20.2392158 27.0547353,20.08614 C27.3673907,19.3207612 27.5237184,18.5553824 27.6800461,17.7900035 C29.7123063,18.6319203 31.0410918,19.7799885 31.0410918,21.0811325 C31.0410918,22.2292007 30.0249617,23.3007311 28.2271931,24.1426478 C27.9927015,24.2191857 27.9145377,24.4487993 28.0708654,24.6784129 C28.1490292,24.8314887 28.3053569,24.9080266 28.4616846,24.9080266 C28.5398485,24.9080266 28.6180123,24.9080266 28.6180123,24.8314887 C30.7284364,23.8364962 31.9008942,22.5353522 31.9008942,21.0811325 C31.7445665,19.3972991 30.2594533,17.9430793 27.75821,16.9480868 Z" id="Shape"></path>
                <path d="M27.3673907,25.3672539 C27.1328991,25.3672539 26.9765714,25.5968675 26.9765714,25.8264812 C27.1328991,27.8164661 26.663916,29.2706859 25.7259497,29.8064511 C24.5534919,30.4187541 22.8338871,29.8829889 20.9579546,28.4287692 C21.4269377,27.9695419 21.8959209,27.5103146 22.364904,26.9745494 C22.5212317,26.8214736 22.5212317,26.59186 22.2867401,26.4387842 C22.1304124,26.2857085 21.8959209,26.2857085 21.7395932,26.5153221 C21.27061,27.0510873 20.8016269,27.5103146 20.3326438,27.9695419 C19.8636607,27.5103146 19.3946775,27.0510873 18.9256944,26.5153221 C18.7693667,26.3622464 18.5348751,26.3622464 18.3785474,26.4387842 C18.2222197,26.59186 18.2222197,26.8214736 18.3003836,26.9745494 C18.7693667,27.5103146 19.2383498,27.9695419 19.7073329,28.4287692 C17.8314004,29.8829889 16.1117956,30.4187541 14.9393378,29.8064511 C13.9232077,29.2706859 13.4542246,27.8164661 13.6887162,25.8264812 C13.6887162,25.5968675 13.5323884,25.4437918 13.2978969,25.3672539 C13.0634053,25.3672539 12.9070776,25.5203296 12.8289138,25.7499433 C12.5944222,28.0460798 13.219733,29.7299132 14.4703547,30.495292 C14.9393378,30.7249056 15.408321,30.8779814 15.9554679,30.8779814 C17.2060896,30.8779814 18.7693667,30.1891405 20.2544799,28.9645343 C21.817757,30.1891405 23.3028702,30.8779814 24.5534919,30.8779814 C25.1006389,30.8779814 25.569622,30.7249056 26.0386052,30.495292 C27.2892268,29.7299132 27.9145377,28.0460798 27.6800461,25.7499433 C27.75821,25.5203296 27.6018822,25.3672539 27.3673907,25.3672539 Z" id="Shape"></path>
                <path d="M12.5944222,24.0661099 C10.7966535,23.2241932 9.78052343,22.1526628 9.78052343,21.0045946 C9.78052343,19.7799885 11.0311451,18.5553824 13.1415692,17.7134657 C13.2978969,18.4023066 13.5323884,19.1676854 13.76688,20.0096021 C13.8450439,20.1626779 14.0013716,20.2392158 14.1576993,20.2392158 L14.314027,20.2392158 C14.5485186,20.1626779 14.6266824,19.9330642 14.5485186,19.7034506 C14.2358631,18.9380718 14.0795354,18.172693 13.9232077,17.4073141 C14.7048463,17.1011626 15.6428125,16.9480868 16.5807788,16.7184732 C16.8152703,16.7184732 16.971598,16.4888596 16.8934342,16.2592459 C16.8934342,16.0296323 16.6589426,15.8765565 16.4244511,15.9530944 C15.4864848,16.1061701 14.5485186,16.3357838 13.76688,16.5653974 C13.4542246,14.4223367 13.9232077,12.7385033 15.0175017,12.1262003 C16.0336318,11.5138972 17.5969089,11.8965866 19.3165137,13.1211927 C19.4728414,13.2742685 19.7854968,13.1977306 19.8636607,13.0446549 C20.0199884,12.8915791 19.9418245,12.5854276 19.7854968,12.5088897 C17.7532366,11.0546699 15.9554679,10.6719805 14.6266824,11.4373593 C13.219733,12.279276 12.672586,14.269261 13.0634053,16.871549 C10.562162,17.8665414 9.07704875,19.3207612 9.07704875,20.9280567 C9.07704875,22.3822765 10.2495066,23.6834205 12.3599306,24.6784129 C12.4380945,24.6784129 12.4380945,24.7549508 12.5162583,24.7549508 C12.672586,24.7549508 12.8289138,24.6784129 12.9070776,24.5253372 C12.8289138,24.3722614 12.7507499,24.1426478 12.5944222,24.0661099 Z" id="Shape"></path>
            </g>
        </g>
    </g>
</svg>