<?xml version="1.0" encoding="UTF-8"?>
<svg width="40px" height="40px" viewBox="0 0 40 40" version="1.1" xmlns="http://www.w3.org/2000/svg" xmlns:xlink="http://www.w3.org/1999/xlink">
    <!-- Generator: Sketch 44.1 (41455) - http://www.bohemiancoding.com/sketch -->
    <title>ruby_icon_color</title>
    <desc>Created with Sketch.</desc>
    <defs>
        <linearGradient x1="8.55950319%" y1="9.43933449%" x2="73.1324909%" y2="91.7099643%" id="linearGradient-1">
            <stop stop-color="#FA0016" offset="0%"></stop>
            <stop stop-color="#9F031B" offset="100%"></stop>
        </linearGradient>
    </defs>
    <g id="Page-1" stroke="none" stroke-width="1" fill="none" fill-rule="evenodd">
        <g id="Color" transform="translate(-288.000000, -8.000000)">
            <g id="ruby_logo" transform="translate(288.000000, 8.000000)">
                <rect id="ruby_icon_flat" x="0" y="0" width="40" height="40"></rect>
                <g id="ruby_icon" transform="translate(7.000000, 12.000000)">
                    <path d="M18.9662581,0.5 L7.03374186,0.5 L7.03374186,0.5 C6.7801017,0.5 6.5359383,0.596382301 6.35068771,0.769632269 L1.24031173,5.54895561 L1.24031173,5.54895561 C0.836940768,5.926196 0.815757758,6.55900654 1.19299815,6.9623775 C1.1960771,6.96566971 1.19917826,6.96894107 1.20230145,6.97219135 L12.2789356,18.4995917 L12.2789356,18.4995917 C12.661596,18.8978246 13.2946351,18.9104485 13.692868,18.5277881 C13.7024533,18.5185776 13.711854,18.509177 13.7210644,18.4995917 L24.7976986,6.97219135 L24.7976986,6.97219135 C25.180359,6.57395846 25.167735,5.94091934 24.7695021,5.55825891 C24.7662518,5.55513572 24.7629805,5.55203455 24.7596883,5.54895561 L19.6493123,0.769632269 L19.6493123,0.769632269 C19.4640617,0.596382301 19.2198983,0.5 18.9662581,0.5 Z" id="ruby_lights" fill="#FFFFFF" fill-rule="nonzero"></path>
                    <path d="M12.999585,17.6965813 L7.36186635,6.57403704 L18.6397935,6.57403704 L12.999585,17.6965813 Z M13.000415,1.49818236 L18.2775288,5.96410577 L7.72205624,5.96410577 L13.000415,1.49818236 Z M13.8332503,1.41531126 L18.8053647,1.41531126 L18.8053647,5.60361649 L13.8332503,1.41531126 Z M7.16683265,5.63137831 L7.16683265,1.41489691 L12.1671646,1.41489691 L7.16683265,5.63137831 Z M11.8053149,16.6979846 L2.08350762,6.57403704 L6.69460213,6.57403704 L11.8053149,16.6979846 Z M23.8886897,6.57403704 L14.1660525,16.6979846 L19.3053979,6.57403704 L23.8886897,6.57403704 Z M19.4166086,5.96410577 L19.4166086,1.80397671 L23.860887,5.96410577 L19.4166086,5.96410577 Z M2.138698,5.96410577 L6.55558875,1.83132417 L6.55558875,5.96369141 L2.138698,5.96410577 Z" id="ruby_darks" fill="url(#linearGradient-1)"></path>
                </g>
            </g>
        </g>
    </g>
</svg>