<?xml version="1.0" encoding="UTF-8"?>
<svg width="40px" height="40px" viewBox="0 0 40 40" version="1.1" xmlns="http://www.w3.org/2000/svg" xmlns:xlink="http://www.w3.org/1999/xlink">
    <!-- Generator: Sketch 44.1 (41455) - http://www.bohemiancoding.com/sketch -->
    <title>scala_icon_color</title>
    <desc>Created with Sketch.</desc>
    <defs>
        <linearGradient x1="100%" y1="91.0800785%" x2="-13.6442183%" y2="0%" id="linearGradient-1">
            <stop stop-color="#D52424" offset="0%"></stop>
            <stop stop-color="#FF9055" offset="100%"></stop>
        </linearGradient>
    </defs>
    <g id="Page-1" stroke="none" stroke-width="1" fill="none" fill-rule="evenodd">
        <g id="Color" transform="translate(-120.000000, -64.000000)">
            <g id="scala_logo" transform="translate(120.000000, 64.000000)">
                <rect id="scala_icon_flat_dark" x="0" y="0" width="40" height="40"></rect>
                <g id="scala_icon" transform="translate(13.000000, 7.000000)">
                    <path d="M-4.4408921e-15,9.1462154 L-4.4408921e-15,5.78459924 L-4.4408921e-15,3.64538895 C13.8983586,5.02059557 13.8983586,7.31260659 13.8983586,7.31260659 L13.8983586,12.813433 C13.8983586,10.521422 -4.4408921e-15,9.1462154 -4.4408921e-15,9.1462154 Z M-4.4408921e-15,16.4806507 L-4.4408921e-15,10.9798242 C13.8983586,12.3550308 13.8983586,14.6470418 13.8983586,14.6470418 L13.8983586,20.1478683 C13.8983586,17.8558573 -4.4408921e-15,16.4806507 -4.4408921e-15,16.4806507 Z" id="scala_lights" fill-opacity="0.8" fill="#C40200"></path>
                    <path d="M13.9204545,-4.4408921e-15 L13.9204545,5.50082645 C13.9204545,5.50082645 13.9204545,7.79283747 0.0220959596,9.16804408 L0.0220959596,3.64538895 C6.85194956e-13,3.64538895 13.9204545,2.29201102 13.9204545,-4.4408921e-15 Z M2.0469737e-16,10.9798242 C2.0469737e-16,10.9798242 13.8983586,9.6046176 13.8983586,7.31260659 L13.8983586,12.813433 C13.8983586,12.813433 13.8983586,15.1054441 2.0469737e-16,16.4806507 L2.0469737e-16,10.9798242 Z M2.0469737e-16,23.7932572 L2.0469737e-16,18.2924308 C2.0469737e-16,18.2924308 13.8983586,16.9172242 13.8983586,14.6252132 L13.8983586,20.1260396 C13.9204545,20.1478683 13.9204545,22.4180506 2.0469737e-16,23.7932572 Z" id="scala_darks" fill="url(#linearGradient-1)"></path>
                </g>
            </g>
        </g>
    </g>
</svg>