<?xml version="1.0" encoding="UTF-8"?>
<svg width="40px" height="40px" viewBox="0 0 40 40" version="1.1" xmlns="http://www.w3.org/2000/svg" xmlns:xlink="http://www.w3.org/1999/xlink">
    <!-- Generator: Sketch 44.1 (41455) - http://www.bohemiancoding.com/sketch -->
    <title>swift_logo_color</title>
    <desc>Created with Sketch.</desc>
    <defs>
        <linearGradient x1="16.7821291%" y1="50%" x2="100%" y2="92.2178967%" id="linearGradient-1">
            <stop stop-color="#FE9B3A" offset="0%"></stop>
            <stop stop-color="#FF4F66" offset="100%"></stop>
        </linearGradient>
    </defs>
    <g id="Page-1" stroke="none" stroke-width="1" fill="none" fill-rule="evenodd">
        <g id="Color" transform="translate(-64.000000, -8.000000)">
            <g id="swift_logo" transform="translate(64.000000, 8.000000)">
                <rect id="swift_logo_color" x="0" y="0" width="40" height="40"></rect>
                <path d="M20.311907,9.00131018 C28.8101204,14.6045204 26.2123059,21.6511142 26.2123059,21.6511142 C26.2123059,21.6511142 27.1284205,22.7123613 27.5869091,24.0282204 C28.0449664,25.3440796 28.0397906,26.9569132 27.9565466,26.9992757 C27.8733027,27.042075 26.7993266,25.173756 24.9209467,25.173756 C23.0429981,25.173756 22.0884964,26.9992757 18.7561512,26.9992757 C11.2538457,26.9992757 8,20.7278728 8,20.7278728 C8,20.7278728 11.3008591,23.1364235 14.7578546,23.0512617 C18.2152813,22.9665366 19.1732335,21.947652 19.1732335,21.947652 C19.1732335,21.947652 17.627398,20.6296092 14.9661801,17.978675 C12.3049621,15.3277407 9.80117441,11.6745175 9.80117441,11.6745175 C9.80117441,11.6745175 13.8124105,14.9150335 15.0994566,15.8679723 C16.3860714,16.8209111 17.6731175,17.6847575 17.6731175,17.6847575 C17.6731175,17.6847575 16.4266151,16.3147442 15.5488876,15.2128815 C14.6702975,14.1110187 12.4240053,10.7831572 12.4240053,10.7831572 C12.4240053,10.7831572 15.8702178,13.9537969 17.4376191,15.2124447 C19.0054517,16.4715293 22.0043898,18.5940236 22.0043898,18.5940236 C22.0043898,18.5940236 23.8116027,14.3913976 20.3123383,9 L20.311907,9.00131018 Z" id="swift_icon" fill="url(#linearGradient-1)"></path>
            </g>
        </g>
    </g>
</svg>