<?xml version="1.0" encoding="UTF-8"?>
<svg width="40px" height="40px" viewBox="0 0 40 40" version="1.1" xmlns="http://www.w3.org/2000/svg" xmlns:xlink="http://www.w3.org/1999/xlink">
    <!-- Generator: Sketch 44.1 (41455) - http://www.bohemiancoding.com/sketch -->
    <title>symphony_logo_color</title>
    <desc>Created with Sketch.</desc>
    <defs>
        <linearGradient x1="0%" y1="0%" x2="100%" y2="100%" id="linearGradient-1">
            <stop stop-color="#11ADE0" offset="0%"></stop>
            <stop stop-color="#007EA7" offset="100%"></stop>
        </linearGradient>
    </defs>
    <g id="Page-1" stroke="none" stroke-width="1" fill="none" fill-rule="evenodd">
        <g id="Color" transform="translate(-288.000000, -64.000000)">
            <g id="api_button" transform="translate(288.000000, 64.000000)">
                <g id="symphony_logo">
                    <rect id="symphony_logo_flat" x="0" y="0" width="40" height="40"></rect>
                    <path d="M26.7251041,11.7881437 C25.3193531,11.8368111 24.0922783,12.6226466 23.1791227,13.7080013 C22.1681544,14.899637 21.4951171,16.3113496 21.0102901,17.7531215 C20.1433927,17.033488 19.4745927,16.1005768 18.0833194,15.6954922 C17.0080841,15.3816591 15.8784691,15.5108424 14.8399577,16.2952464 C14.3480684,16.6677668 14.0087249,17.2299469 13.8477044,17.7599206 C13.4306755,19.1347748 14.2862733,20.3589748 14.6754061,20.7984128 L15.5260602,21.7213043 C15.7012053,21.9023757 16.1235309,22.3747358 15.9173117,23.0521431 C15.6948492,23.7889533 14.8184177,24.2648919 13.920093,23.9843387 C13.5186012,23.8590917 12.9426705,23.5567096 13.0715575,23.1301541 C13.1248779,22.9562397 13.2481151,22.8245515 13.3148538,22.6753286 C13.3745302,22.5461453 13.4041919,22.4480948 13.4225539,22.3901233 C13.5867524,21.8483406 13.3621712,21.1419475 12.7887124,20.9619496 C12.2530368,20.7959079 11.7057085,20.927954 11.4931332,21.6257587 C11.2519557,22.4201826 11.627317,23.8605231 13.634776,24.4874738 C15.9868754,25.2199898 17.9763256,23.922073 18.2584645,22.2290914 C18.4367876,21.1698597 17.9636134,20.3815193 17.0991878,19.3688078 L16.3936639,18.5783203 C15.9667478,18.1460393 15.819852,17.4088712 16.261952,16.8427548 C16.6348415,16.3643112 17.1655734,16.1606954 18.0363551,16.4004539 C19.30651,16.7497141 19.8725534,17.6429042 20.8167831,18.3632533 C20.4272972,19.6600965 20.1723481,20.9608761 19.941764,22.1281781 L19.8001648,22.9977502 C19.1250088,26.5866135 18.6094609,28.5583591 17.2697424,29.6891606 C16.9999625,29.884188 16.6136546,30.1754768 16.0320741,30.1958741 C15.7269827,30.205536 15.6288167,29.9926161 15.6249325,29.9002912 C15.6178702,29.6841507 15.7979588,29.5843109 15.9176648,29.4866183 C16.0970473,29.3874942 16.3678865,29.2232417 16.3491714,28.6982779 C16.3297501,28.0770528 15.8216175,27.5381328 15.0881976,27.5624665 C14.5380443,27.5800011 13.7001023,28.1049649 13.7315296,29.0657884 C13.7643693,30.0573867 14.6757592,30.8013539 16.0511423,30.7530444 C16.7863279,30.727995 18.4276066,30.4259708 20.0452267,28.4760539 C21.9280361,26.2423631 22.4545307,23.6815988 22.8500195,21.8082615 L23.2928258,19.3326651 C23.5375345,19.3630822 23.8006052,19.3838375 24.0862753,19.3902787 C26.4316655,19.4407354 27.6040074,18.210452 27.6220163,17.314757 C27.633316,16.7729743 27.27102,16.2390642 26.7628874,16.2523046 C26.4002382,16.2623244 25.9443667,16.5074507 25.8345479,17.0163113 C25.7275541,17.5155101 26.58068,17.9663993 25.9143519,18.4044059 C25.4408246,18.7150185 24.5912298,18.933664 23.3955823,18.7561711 L23.612748,17.5384124 C24.0562605,15.228142 24.603942,12.3875401 26.6809647,12.3177596 C26.8324511,12.3106026 27.3857823,12.3249166 27.3988476,12.6956477 C27.4023788,12.8194633 27.3716577,12.8523854 27.2293524,13.1354436 C27.0828096,13.356594 27.0280768,13.5451802 27.0344329,13.7613207 C27.0549135,14.3506973 27.4973667,14.7386052 28.1379174,14.7157029 C28.9945745,14.6867171 29.2410488,13.8421945 29.2265711,13.4074085 C29.1912596,12.3861087 28.1294426,11.7409077 26.7251041,11.7881437 L26.7251041,11.7881437 Z" id="symphony_icon" fill="url(#linearGradient-1)"></path>
                </g>
            </g>
        </g>
    </g>
</svg>